<?xml version="1.0" encoding="UTF-8"?>
<!-- Created with Inkscape (http://www.inkscape.org/) -->
<svg width="1054" height="599.08" version="1.1" viewBox="0 0 1054 599.08" xml:space="preserve" xmlns="http://www.w3.org/2000/svg"><defs><clipPath id="clipPath39"><path d="m0 1080h1080v-1080h-1080z"/></clipPath></defs><g transform="matrix(1.3333 0 0 -1.3333 -195.49 1019.5)"><g clip-path="url(#clipPath39)"><g transform="translate(603.64 482.05)"><path d="m0 0c0 2.848-2.309 5.156-5.156 5.156-2.848 0-5.157-2.308-5.157-5.156s2.309-5.156 5.157-5.156c2.847 0 5.156 2.308 5.156 5.156" fill="#231f20"/></g><g transform="translate(721.75 539.39)"><path d="m0 0c0 2.848-2.309 5.156-5.156 5.156-2.848 0-5.157-2.308-5.157-5.156 0-2.847 2.309-5.156 5.157-5.156 2.847 0 5.156 2.309 5.156 5.156" fill="#231f20"/></g><g transform="translate(375.26 539.39)"><path d="m0 0c0 2.848-2.309 5.156-5.156 5.156s-5.156-2.308-5.156-5.156c0-2.847 2.309-5.156 5.156-5.156s5.156 2.309 5.156 5.156" fill="#231f20"/></g><g transform="translate(286.45 539.39)"><path d="m0 0c0 2.848-2.309 5.156-5.156 5.156-2.848 0-5.156-2.308-5.156-5.156 0-2.847 2.308-5.156 5.156-5.156 2.847 0 5.156 2.309 5.156 5.156" fill="#231f20"/></g><g transform="translate(281.93 538.71)"><path d="m0 0h87.553v-59.398h3.433v120.17h-3.433v-57.507h-87.553v57.507h-3.432v-120.17h3.432z"/></g><g transform="translate(426.47 539.39)"><path d="m0 0c0 10.754 2.545 20.515 7.639 29.27 5.091 8.755 12.073 15.623 20.943 20.598 8.868 4.98 18.739 7.471 29.613 7.471 10.873 0 20.744-2.491 29.614-7.471 8.868-4.975 15.85-11.843 20.944-20.598 5.091-8.755 7.639-18.516 7.639-29.27 0-10.761-2.548-20.514-7.639-29.27-5.094-8.755-12.076-15.622-20.944-20.602-8.87-4.979-18.741-7.467-29.614-7.467-10.874 0-20.745 2.488-29.613 7.467-8.87 4.98-15.852 11.847-20.943 20.602-5.094 8.756-7.639 18.509-7.639 29.27m26.78-52.704c9.382-5.265 19.855-7.899 31.415-7.899 11.559 0 22.032 2.634 31.417 7.899 9.381 5.263 16.764 12.501 22.145 21.715 5.38 9.214 8.071 19.543 8.071 30.989 0 11.442-2.691 21.772-8.071 30.986-5.381 9.21-12.764 16.452-22.145 21.718-9.385 5.262-19.858 7.895-31.417 7.895-11.56 0-22.033-2.633-31.415-7.895-9.386-5.266-16.767-12.508-22.146-21.718-5.381-9.214-8.068-19.544-8.068-30.986 0-11.446 2.687-21.775 8.068-30.989 5.379-9.214 12.76-16.452 22.146-21.715"/></g><g transform="translate(596.43 599.48)"><path d="m0 0v-120.17h75.021v3.263h-71.585v116.91z"/></g><g transform="translate(716.6 538.71)"><path d="m0 0h48.24c13.047 0 22.858-2.289 29.442-6.867 6.577-4.578 9.871-11.617 9.871-21.114 0-18.772-13.105-28.155-39.313-28.155h-48.24zm0 57.511h44.808c11.557 0 20.484-2.319 26.778-6.955 6.295-4.632 9.443-11.358 9.443-20.17 0-8.813-3.148-15.535-9.443-20.171-6.294-4.635-15.221-6.951-26.778-6.951h-44.808zm80.085-108.84c7.266 5.378 10.903 13.158 10.903 23.347 0 17.395-10.073 27.465-30.217 30.213 7.441 1.716 13.246 4.949 17.426 9.699 4.174 4.747 6.264 10.903 6.264 18.455 0 9.841-3.576 17.365-10.728 22.574-7.153 5.209-17.024 7.811-29.613 7.811h-47.556v-120.17h50.989c14.422 0 25.263 2.686 32.532 8.07"/></g><g transform="translate(548.26 360.33)"><path d="m0 0c0 2.848-2.309 5.155-5.156 5.155-2.848 0-5.156-2.307-5.156-5.155s2.308-5.156 5.156-5.156c2.847 0 5.156 2.308 5.156 5.156" fill="#231f20"/></g><g transform="translate(872.42 434.32)"><path d="m0 0c0 2.848-2.309 5.156-5.156 5.156-2.848 0-5.157-2.308-5.157-5.156s2.309-5.156 5.157-5.156c2.847 0 5.156 2.308 5.156 5.156" fill="#231f20"/></g><g transform="translate(720.52 373.89)"><path d="m0 0c0 2.848-2.308 5.156-5.155 5.156-2.848 0-5.157-2.308-5.157-5.156s2.309-5.155 5.157-5.155c2.847 0 5.155 2.307 5.155 5.155" fill="#231f20"/></g><g transform="translate(392.77 431.4)"><path d="m0 0c0 2.848-2.309 5.156-5.156 5.156s-5.156-2.308-5.156-5.156 2.309-5.156 5.156-5.156 5.156 2.308 5.156 5.156" fill="#231f20"/></g><g transform="translate(234.5 336.07)"><path d="m0 0c0 2.848-2.309 5.156-5.156 5.156-2.848 0-5.156-2.308-5.156-5.156 0-2.847 2.308-5.155 5.156-5.155 2.847 0 5.156 2.308 5.156 5.155" fill="#231f20"/></g><g transform="translate(229.34 337.49)"><path d="m0 0-56.311 98.54h-2.916v-120.17h3.432v112.45l54.764-95.452h2.059l54.764 95.796v-112.79h3.435v120.17h-2.919z"/></g><g transform="translate(352.43 355.35)"><path d="m0 0 35.193 76.05 35.193-76.05zm33.477 80.686-55.795-120.17h3.951l16.823 36.225h73.474l16.823-36.225h3.951l-55.795 120.17z"/></g><g transform="translate(527.7 360.33)"><path d="m0 0h-37.597v72.445h37.597c13.96 0 24.691-3.148 32.189-9.442 7.491-6.295 11.243-15.222 11.243-26.782s-3.752-20.488-11.243-26.779c-7.498-6.296-18.229-9.442-32.189-9.442m39.141 12.103c5.151 6.462 7.727 14.506 7.727 24.118 0 12.474-4.181 22.174-12.535 29.101-8.354 6.921-19.915 10.384-34.677 10.384h-40.685v-120.17h3.432v41.201h37.253c5.377 0 10.07 0.402 14.079 1.203l30.557-42.404h4.289l-31.243 43.261c9.383 2.404 16.652 6.841 21.803 13.307"/></g><g transform="translate(646.23 425.73)"><path d="m0 0c8.988 5.033 18.974 7.556 29.958 7.556 16.138 0 29.242-4.808 39.315-14.423l2.057 2.403c-5.036 5.034-11.098 8.84-18.194 11.416-7.097 2.575-14.824 3.863-23.178 3.863-11.786 0-22.402-2.632-31.846-7.895-9.439-5.267-16.849-12.508-22.23-21.718-5.381-9.214-8.068-19.544-8.068-30.986 0-11.445 2.687-21.776 8.068-30.988 5.381-9.214 12.791-16.453 22.23-21.715 9.444-5.267 20.06-7.9 31.846-7.9 8.239 0 15.939 1.316 23.093 3.951 7.147 2.63 13.243 6.463 18.279 11.5v43.949h-3.26v-42.574c-9.5-9.042-22.207-13.562-38.112-13.562-10.984 0-20.97 2.515-29.958 7.555-8.984 5.034-16.021 11.931-21.11 20.686-5.098 8.756-7.64 18.455-7.64 29.098s2.542 20.343 7.64 29.097c5.089 8.756 12.126 15.651 21.11 20.687"/></g><path d="m776.79 315.86h3.432v120.17h-3.432z"/><g transform="translate(820.91 432.77)"><path d="m0 0h44.636v-116.91h3.431v116.91h44.637v3.261h-92.704z"/></g><g transform="translate(513.45 645.05)"><path d="m0 0c0 2.848-2.309 5.156-5.156 5.156-2.848 0-5.156-2.308-5.156-5.156 0-2.847 2.308-5.156 5.156-5.156 2.847 0 5.156 2.309 5.156 5.156" fill="#231f20"/></g><g transform="translate(597.38 686.87)"><path d="m0 0c0 2.848-2.309 5.156-5.156 5.156-2.848 0-5.156-2.308-5.156-5.156 0-2.847 2.308-5.156 5.156-5.156 2.847 0 5.156 2.309 5.156 5.156" fill="#231f20"/></g><g transform="translate(719.44 759.49)"><path d="m0 0c0 2.847-2.309 5.156-5.156 5.156-2.848 0-5.157-2.309-5.157-5.156 0-2.848 2.309-5.156 5.157-5.156 2.847 0 5.156 2.308 5.156 5.156" fill="#231f20"/></g><g transform="translate(322.19 759.5)"><path d="m0 0c0 2.848-2.309 5.156-5.156 5.156s-5.156-2.308-5.156-5.156 2.309-5.156 5.156-5.156 5.156 2.308 5.156 5.156" fill="#231f20"/></g><g transform="translate(156.93 676.56)"><path d="m0 0c0 2.847-2.309 5.156-5.156 5.156-2.848 0-5.156-2.309-5.156-5.156 0-2.848 2.308-5.156 5.156-5.156 2.847 0 5.156 2.308 5.156 5.156" fill="#231f20"/></g><g transform="translate(152.4 674.17)"><path d="m0 0 29.87 30.729 55.451-62.662h4.636l-57.512 65.063 53.564 55.107h-4.636l-81.373-83.601v83.601h-3.432v-120.17h3.432z"/></g><g transform="translate(370.6 642.23)"><path d="m0 0h3.951l-55.795 120.17h-3.432l-12.006-25.859h3.901l9.821 21.224 35.193-76.05h-70.386l9.533 20.6h-3.953l-27.898-60.085h3.948l16.826 36.225h73.474z"/></g><g transform="translate(419.52 756.05)"><path d="m0 0 88.068-113.82h2.916v120.17h-3.431v-113.82l-88.069 113.82h-2.916v-120.17h3.432z"/></g><g transform="translate(590.85 642.23)"><path d="m0 0h3.433v40.86l48.927 79.31h-3.948l-46.695-75.706-46.696 75.706h-3.949l48.928-79.31z"/></g><g transform="translate(679.09 681.72)"><path d="m0 0 35.193 76.05 35.194-76.05zm33.478 80.686-55.795-120.17h3.947l16.826 36.225h73.475l16.822-36.225h3.951l-55.795 120.17z"/></g><g transform="translate(818.14 646.44)"><path d="m0 0c7.666-3.149 15.852-4.723 24.55-4.723 9.156 0 16.796 1.345 22.918 4.036 6.122 2.686 10.671 6.32 13.647 10.902 2.977 4.575 4.464 9.612 4.464 15.107 0 6.867-1.773 12.329-5.32 16.395-3.55 4.058-7.9 7.093-13.047 9.099-5.151 1.999-12.076 4.089-20.775 6.264-8.353 2.06-14.992 4.005-19.914 5.839-4.921 1.827-9.042 4.605-12.359 8.324-3.32 3.718-4.979 8.671-4.979 14.85 0 7.896 3.149 14.392 9.443 19.486 6.294 5.091 15.45 7.64 27.466 7.64 5.606 0 11.301-0.89 17.083-2.664 5.778-1.773 11.013-4.376 15.706-7.811l1.891 2.748c-4.463 3.317-9.787 5.98-15.966 7.983-6.179 1.999-12.477 3.004-18.886 3.004-8.924 0-16.422-1.373-22.486-4.12-6.069-2.748-10.533-6.412-13.391-10.987-2.862-4.579-4.292-9.615-4.292-15.107 0-6.982 1.804-12.561 5.407-16.739 3.605-4.18 7.984-7.268 13.132-9.271 5.151-2.002 12.13-4.092 20.945-6.263 8.241-1.949 14.79-3.837 19.656-5.668 4.864-1.83 8.954-4.578 12.274-8.239 3.317-3.665 4.979-8.584 4.979-14.763 0-7.899-3.175-14.335-9.527-19.314-6.351-4.98-15.767-7.468-28.241-7.468-8.128 0-15.795 1.517-23.002 4.548-7.212 3.031-12.765 6.841-16.654 11.419l-2.405-2.232c4.123-5.04 10.017-9.129 17.683-12.275"/></g><path d="m933.68 642.23h3.432v120.17h-3.432z"/><g transform="translate(307.22 736.54)"><path d="m0 0h-3.901l-15.891-34.226h3.954z"/></g><g><path d="m330.53 678.46h-28.184v3.26h28.184z"/><path d="m346.87 757.87h-59.671v3.26h59.671z"/><path d="m744.12 757.86h-59.672v3.26h59.672z"/></g></g></g></svg>
