<?xml version="1.0" encoding="UTF-8"?>
<!-- Created with Inkscape (http://www.inkscape.org/) -->
<svg width="161.83mm" height="8.4505mm" version="1.1" viewBox="0 0 161.83 8.4505" xmlns="http://www.w3.org/2000/svg">
  <defs>
    <clipPath id="clipPath14960">
      <path d="M 0,516.949 H 841.89 V 0 H 0 Z"/>
    </clipPath>
  </defs>
  <g transform="translate(-26.046 -118.21)">
    <g transform="matrix(.35278 0 0 -.35277 16.384 292.16)">
      <g clip-path="url(#clipPath14960)">
        <g transform="translate(273.49 470.28)">
          <path d="m0 0c0 0.547-0.443 0.99-0.99 0.99s-0.99-0.443-0.99-0.99 0.443-0.989 0.99-0.989 0.99 0.442 0.99 0.989" fill="#231f20"/>
        </g>
        <g transform="translate(296.17 481.29)">
          <path d="m0 0c0 0.547-0.443 0.99-0.99 0.99s-0.99-0.443-0.99-0.99 0.443-0.99 0.99-0.99 0.99 0.443 0.99 0.99" fill="#231f20"/>
        </g>
        <g transform="translate(229.64 481.29)">
          <path d="m0 0c0 0.547-0.443 0.99-0.99 0.99s-0.99-0.443-0.99-0.99 0.443-0.99 0.99-0.99 0.99 0.443 0.99 0.99" fill="#231f20"/>
        </g>
        <g transform="translate(212.58 481.29)">
          <path d="m0 0c0 0.547-0.443 0.99-0.99 0.99s-0.99-0.443-0.99-0.99 0.443-0.99 0.99-0.99 0.99 0.443 0.99 0.99" fill="#231f20"/>
        </g>
        <g transform="translate(211.72 481.16)">
          <path d="m0 0h16.811v-11.405h0.659v23.074h-0.659v-11.042h-16.811v11.042h-0.659v-23.074h0.659z" fill="#231f20"/>
        </g>
        <g transform="translate(239.47 481.29)">
          <path d="m0 0c0 2.065 0.488 3.939 1.467 5.62 0.977 1.682 2.318 3 4.021 3.955 1.702 0.956 3.598 1.435 5.686 1.435 2.087 0 3.983-0.479 5.686-1.435 1.702-0.955 3.043-2.273 4.021-3.955 0.978-1.681 1.467-3.555 1.467-5.62 0-2.066-0.489-3.938-1.467-5.62-0.978-1.681-2.319-2.999-4.021-3.955-1.703-0.956-3.599-1.435-5.686-1.435-2.088 0-3.984 0.479-5.686 1.435-1.703 0.956-3.044 2.274-4.021 3.955-0.979 1.682-1.467 3.554-1.467 5.62m5.142-10.119c1.801-1.012 3.812-1.517 6.032-1.517 2.219 0 4.23 0.505 6.032 1.517 1.801 1.011 3.219 2.4 4.252 4.169s1.55 3.753 1.55 5.95-0.517 4.181-1.55 5.949c-1.033 1.769-2.451 3.159-4.252 4.171-1.802 1.01-3.813 1.516-6.032 1.516-2.22 0-4.231-0.506-6.032-1.516-1.802-1.012-3.22-2.402-4.252-4.171-1.034-1.768-1.55-3.752-1.55-5.949s0.516-4.181 1.55-5.95c1.032-1.769 2.45-3.158 4.252-4.169" fill="#231f20"/>
        </g>
        <g transform="translate(272.1 492.83)">
          <path d="m0 0v-23.074h14.405v0.627h-13.745v22.447z" fill="#231f20"/>
        </g>
        <g transform="translate(295.18 481.16)">
          <path d="m0 0h9.263c2.505 0 4.388-0.439 5.653-1.318 1.263-0.879 1.895-2.231 1.895-4.055 0-3.604-2.516-5.405-7.548-5.405h-9.263zm0 11.043h8.604c2.219 0 3.933-0.445 5.141-1.336 1.209-0.89 1.814-2.181 1.814-3.873 0-1.691-0.605-2.982-1.814-3.873-1.208-0.89-2.922-1.334-5.141-1.334h-8.604zm15.377-20.898c1.395 1.032 2.094 2.526 2.094 4.482 0 3.341-1.935 5.274-5.803 5.802 1.429 0.329 2.544 0.95 3.347 1.862 0.801 0.911 1.202 2.093 1.202 3.543 0 1.89-0.686 3.335-2.059 4.335-1.374 1-3.269 1.5-5.686 1.5h-9.132v-23.074h9.79c2.77 0 4.851 0.515 6.247 1.55" fill="#231f20"/>
        </g>
        <g transform="translate(415.98 477.83)">
          <path d="m0 0c0 0.547-0.443 0.99-0.99 0.99s-0.99-0.443-0.99-0.99 0.443-0.99 0.99-0.99 0.99 0.443 0.99 0.99" fill="#231f20"/>
        </g>
        <g transform="translate(478.21 492.04)">
          <path d="m0 0c0 0.546-0.442 0.989-0.989 0.989s-0.99-0.443-0.99-0.989c0-0.547 0.443-0.99 0.99-0.99s0.989 0.443 0.989 0.99" fill="#231f20"/>
        </g>
        <g transform="translate(449.05 480.44)">
          <path d="m0 0c0 0.547-0.443 0.99-0.99 0.99s-0.989-0.443-0.989-0.99 0.442-0.989 0.989-0.989 0.99 0.442 0.99 0.989" fill="#231f20"/>
        </g>
        <g transform="translate(386.12 491.48)">
          <path d="m0 0c0 0.547-0.443 0.989-0.99 0.989s-0.99-0.442-0.99-0.989 0.443-0.99 0.99-0.99 0.99 0.443 0.99 0.99" fill="#231f20"/>
        </g>
        <g transform="translate(355.73 473.17)">
          <path d="m0 0c0 0.547-0.443 0.99-0.99 0.99s-0.99-0.443-0.99-0.99 0.443-0.99 0.99-0.99 0.99 0.443 0.99 0.99" fill="#231f20"/>
        </g>
        <g transform="translate(354.74 473.45)">
          <path d="m0 0-10.812 18.92h-0.56v-23.073h0.659v21.59l10.515-18.328h0.395l10.515 18.394v-21.656h0.66v23.073h-0.56z" fill="#231f20"/>
        </g>
        <g transform="translate(378.37 476.88)">
          <path d="m0 0 6.757 14.603 6.758-14.603zm6.428 15.492-10.714-23.073h0.759l3.23 6.955h14.108l3.23-6.955h0.759l-10.714 23.073z" fill="#231f20"/>
        </g>
        <g transform="translate(412.03 477.83)">
          <path d="m0 0h-7.219v13.91h7.219c2.681 0 4.741-0.604 6.181-1.813 1.438-1.208 2.158-2.922 2.158-5.142s-0.72-3.934-2.158-5.142c-1.44-1.209-3.5-1.813-6.181-1.813m7.515 2.324c0.989 1.24 1.484 2.785 1.484 4.631 0 2.395-0.803 4.257-2.407 5.587-1.604 1.329-3.823 1.994-6.658 1.994h-7.812v-23.073h0.659v7.91h7.153c1.032 0 1.934 0.077 2.703 0.231l5.867-8.141h0.824l-5.999 8.306c1.802 0.461 3.197 1.313 4.186 2.555" fill="#231f20"/>
        </g>
        <g transform="translate(434.79 490.39)">
          <path d="m0 0c1.727 0.967 3.644 1.451 5.753 1.451 3.099 0 5.614-0.924 7.549-2.769l0.394 0.461c-0.967 0.966-2.131 1.697-3.493 2.192-1.363 0.494-2.847 0.741-4.45 0.741-2.264 0-4.302-0.505-6.115-1.515-1.813-1.011-3.236-2.402-4.269-4.17-1.033-1.77-1.549-3.753-1.549-5.95 0-2.198 0.516-4.181 1.549-5.95s2.456-3.159 4.269-4.17c1.813-1.01 3.851-1.516 6.115-1.516 1.582 0 3.06 0.253 4.434 0.758 1.372 0.505 2.542 1.242 3.509 2.208v8.439h-0.626v-8.174c-1.824-1.736-4.263-2.604-7.317-2.604-2.109 0-4.026 0.482-5.753 1.45-1.725 0.967-3.075 2.291-4.053 3.972-0.979 1.681-1.467 3.543-1.467 5.587 0 2.043 0.488 3.906 1.467 5.587 0.978 1.681 2.328 3.005 4.053 3.972" fill="#231f20"/>
        </g>
        <path d="m459.85 469.29h0.659v23.073h-0.659z" fill="#231f20"/>
        <g transform="translate(468.33 491.74)">
          <path d="m0 0h8.57v-22.447h0.659v22.447h8.571v0.626h-17.8z" fill="#231f20"/>
        </g>
        <g transform="translate(97.823 470.12)">
          <path d="m0 0c0 0.547-0.443 0.99-0.99 0.99s-0.99-0.443-0.99-0.99c0-0.546 0.443-0.989 0.99-0.989s0.99 0.443 0.99 0.989" fill="#231f20"/>
        </g>
        <g transform="translate(113.94 478.15)">
          <path d="m0 0c0 0.547-0.443 0.99-0.99 0.99s-0.99-0.443-0.99-0.99c0-0.546 0.443-0.989 0.99-0.989s0.99 0.443 0.99 0.989" fill="#231f20"/>
        </g>
        <g transform="translate(137.37 492.1)">
          <path d="m0 0c0 0.547-0.443 0.99-0.99 0.99s-0.99-0.443-0.99-0.99c0-0.546 0.443-0.989 0.99-0.989s0.99 0.443 0.99 0.989" fill="#231f20"/>
        </g>
        <g transform="translate(61.099 492.1)">
          <path d="m0 0c0 0.547-0.443 0.99-0.99 0.99s-0.99-0.443-0.99-0.99 0.443-0.99 0.99-0.99 0.99 0.443 0.99 0.99" fill="#231f20"/>
        </g>
        <g transform="translate(29.367 476.18)">
          <path d="m0 0c0 0.547-0.443 0.99-0.99 0.99s-0.99-0.443-0.99-0.99 0.443-0.99 0.99-0.99 0.99 0.443 0.99 0.99" fill="#231f20"/>
        </g>
        <g transform="translate(28.498 475.72)">
          <path d="m0 0 5.735 5.9 10.647-12.032h0.89l-11.042 12.493 10.285 10.581h-0.89l-15.625-16.052v16.052h-0.659v-23.074h0.659z" fill="#231f20"/>
        </g>
        <g transform="translate(70.393 469.58)">
          <path d="m0 0h0.759l-10.713 23.074h-0.659l-2.305-4.966h0.749l1.885 4.076 6.758-14.602h-13.515l1.831 3.955h-0.76l-5.356-11.537h0.758l3.231 6.956h14.107z" fill="#231f20"/>
        </g>
        <g transform="translate(79.787 491.44)">
          <path d="m0 0 16.91-21.854h0.56v23.074h-0.659v-21.855l-16.91 21.855h-0.56v-23.074h0.659z" fill="#231f20"/>
        </g>
        <g transform="translate(112.68 469.58)">
          <path d="m0 0h0.659v7.846l9.395 15.228h-0.758l-8.966-14.536-8.966 14.536h-0.759l9.395-15.228z" fill="#231f20"/>
        </g>
        <g transform="translate(129.63 477.17)">
          <path d="m0 0 6.757 14.602 6.758-14.602zm6.428 15.492-10.713-23.074h0.758l3.231 6.956h14.107l3.231-6.956h0.758l-10.713 23.074z" fill="#231f20"/>
        </g>
        <g transform="translate(156.32 470.39)">
          <path d="m0 0c1.472-0.604 3.043-0.907 4.714-0.907 1.758 0 3.224 0.258 4.4 0.774 1.176 0.517 2.049 1.214 2.62 2.094 0.572 0.879 0.857 1.846 0.857 2.9 0 1.32-0.34 2.368-1.021 3.149-0.681 0.779-1.517 1.361-2.505 1.747-0.989 0.384-2.319 0.785-3.989 1.202-1.604 0.395-2.878 0.77-3.824 1.121-0.944 0.352-1.735 0.885-2.373 1.599-0.637 0.714-0.956 1.665-0.956 2.851 0 1.516 0.605 2.764 1.813 3.741 1.209 0.978 2.967 1.467 5.274 1.467 1.076 0 2.17-0.171 3.28-0.51 1.109-0.341 2.115-0.841 3.016-1.5l0.363 0.527c-0.857 0.637-1.879 1.148-3.065 1.533-1.187 0.384-2.396 0.576-3.627 0.576-1.713 0-3.153-0.263-4.317-0.791-1.166-0.527-2.023-1.231-2.572-2.109-0.549-0.879-0.824-1.846-0.824-2.901 0-1.34 0.347-2.412 1.039-3.213 0.692-0.803 1.532-1.396 2.521-1.781 0.989-0.384 2.329-0.786 4.022-1.203 1.582-0.374 2.84-0.736 3.774-1.088 0.934-0.351 1.719-0.879 2.357-1.582 0.636-0.704 0.956-1.648 0.956-2.835 0-1.516-0.61-2.752-1.83-3.708-1.219-0.956-3.027-1.433-5.422-1.433-1.561 0-3.033 0.291-4.417 0.873-1.385 0.582-2.451 1.313-3.198 2.192l-0.462-0.429c0.792-0.967 1.924-1.752 3.396-2.356" fill="#231f20"/>
        </g>
        <path d="m178.51 469.58h0.659v23.074h-0.659z" fill="#231f20"/>
        <g transform="translate(58.224 487.69)">
          <path d="m0 0h-0.749l-3.051-6.571h0.759z" fill="#231f20"/>
        </g>
        <g fill="#231f20">
          <path d="m62.699 476.54h-5.412v0.626h5.412z"/>
          <path d="m65.838 491.79h-11.457v0.626h11.457z"/>
          <path d="m142.11 491.78h-11.457v0.626h11.457z"/>
        </g>
      </g>
    </g>
  </g>
</svg>
